<?xml version="1.0" encoding="UTF-8"?>
<svg id="a" xmlns="http://www.w3.org/2000/svg" version="1.1" viewBox="0 0 45.8 42.8">
  <!-- Generator: Adobe Illustrator 29.1.0, SVG Export Plug-In . SVG Version: 2.1.0 Build 142)  -->
  <g id="Layer_2">
    <path fill="currentColor" d="M33.1,13.6c0,0-.1,0-.3,0h-.3c0,0-15.3.7-15.3.7l5.8-6-5.9-5L3.4,18l12.4,12.1,5-4.8-2.9-4,13.5.6h.2c.4.4,2.7,1.9,2.7,4.6,0,2.5-2,4.2-2.6,4.7l-.2.2-14.5,1.3v7.2c0,0,17.4-.4,17.4-.4h.1c3.9-1.4,8.3-5.5,8.1-12.9-.2-9.6-8.1-12.4-9.7-12.9Z"/>
  </g>
</svg>