<?xml version="1.0" encoding="UTF-8"?>
<svg id="Layer_3" xmlns="http://www.w3.org/2000/svg" version="1.1" viewBox="0 0 51.2 50.8">
  <!-- Generator: Adobe Illustrator 29.1.0, SVG Export Plug-In . SVG Version: 2.1.0 Build 142)  -->
  <path fill="currentColor" d="M35.8,1.8H15.2C8,1.8,2.2,7.7,2.2,14.9v20.6c0,7.2,5.9,13.1,13.1,13.1h20.6c7.2,0,13.1-5.9,13.1-13.1V14.9c0-7.2-5.9-13.1-13.1-13.1ZM41.7,38.5c0,2-1.6,3.6-3.6,3.6H12.9c-2,0-3.6-1.6-3.6-3.6V12.9c0-2,1.6-3.6,3.6-3.6h25.2c2,0,3.6,1.6,3.6,3.6v25.7Z"/>
</svg>